# xmcd
#
# Track frame offsets:
#	150
#	9872
#	19480
#	30375
#	37982
#	49590
#	60580
#	71045
#	81025
#	90085
#	102070
#	112325
#	124157
#	136322
#	146597
#	156057
#	166057
#	175745
#	187265
#	198847
#	207742
#	219840
#	230415
#	242385
#	253082
#	263545
#	274252
#	283470
#	291545
#	304770
#
# Disc length: 4175 seconds
#
# Revision: 2
# Processed by: cddbd v1.5.2PL0 Copyright (c) Steve Scherf et al.
# Submitted via: EasyCDDAExtractor 8.2.3.1
#
DISCID=ad104d1e
DTITLE=Various Artist - Classic Recordings [Disc2]
DYEAR=196
DGENRE=Country
TTITLE0=Marvin Rainwater - Crazy Love (& Patty Rainwater)
TTITLE1=Marvin Rainwater - Moanin' The Blues
TTITLE2=Marvin Rainwater - Gamblin' Man (Roving Gambler)
TTITLE3=Marvin Rainwater - I Dig You Baby
TTITLE4=Marvin Rainwater - Dance Me Daddy
TTITLE5=Marvin Rainwater - Nothin' Needs Nothin' (Like I Need You)
TTITLE6=Marvin Rainwater - (There's Always) A Need For Love
TTITLE7=Marvin Rainwater - No Good Runaround
TTITLE8=Marvin Rainwater - (Don't Be) Late For Love
TTITLE9=Marvin Rainwater - The Last Time
TTITLE10=Marvin Rainwater and Patty Rainwater - Can I Count On Your Love
TTITLE11=Marvin Rainwater and Patty Rainwater - Let Me Live Again
TTITLE12=Marvin Rainwater - Lonley Island
TTITLE13=Marvin Rainwater - Born To Be Lonesome
TTITLE14=Marvin Rainwater - Love Me Baby (Like There's No Tomorrow)
TTITLE15=Marvin Rainwater - That's When I'll Stop Loving You
TTITLE16=Marvin Rainwater - A Song Of New Love
TTITLE17=Marvin Rainwater - Halfbreed
TTITLE18=Marvin Rainwater - The Valley Of The Moon
TTITLE19=Marvin Rainwater - Young Girls
TTITLE20=Marvin Rainwater - The Pale Faced Ingian (Lament Of The Cherokee Nati
TTITLE20=on)
TTITLE21=Marvin Rainwater - Wayward Angel
TTITLE22=Marvin Rainwater - Hard Luck Blues
TTITLE23=Marvin Rainwater - She's Gone
TTITLE24=Marvin Rainwater - Yesterday's Kisses
TTITLE25=Marvin Rainwater - You're Not Happy
TTITLE26=Marvin Rainwater - I Can't Forget
TTITLE27=Marvin Rainwater - Boo Hoo
TTITLE28=Marvin Rainwater - Tough Top Cat
TTITLE29=Marvin Rainwater - (There's A) Honky Tonk In Your Heart
EXTD=
EXTT0=
EXTT1=
EXTT2=
EXTT3=
EXTT4=
EXTT5=
EXTT6=
EXTT7=
EXTT8=
EXTT9=
EXTT10=
EXTT11=
EXTT12=
EXTT13=
EXTT14=
EXTT15=
EXTT16=
EXTT17=
EXTT18=
EXTT19=
EXTT20=
EXTT21=
EXTT22=
EXTT23=
EXTT24=
EXTT25=
EXTT26=
EXTT27=
EXTT28=
EXTT29=
PLAYORDER=
